{
    "asset" : {
        "generator" : "Khronos glTF Blender I/O v1.4.40",
        "version" : "2.0"
    },
    "scene" : 0,
    "scenes" : [
        {
            "name" : "Scene",
            "nodes" : [
                0
            ]
        }
    ],
    "nodes" : [
        {
            "mesh" : 0,
            "name" : "treasure_box"
        }
    ],
    "meshes" : [
        {
            "name" : "treasure_box",
            "primitives" : [
                {
                    "attributes" : {
                        "POSITION" : 0
                    },
                    "indices" : 1
                }
            ]
        }
    ],
    "accessors" : [
        {
            "bufferView" : 0,
            "componentType" : 5126,
            "count" : 2740,
            "max" : [
                0.9221974015235901,
                1.9571616649627686,
                1.0880886316299438
            ],
            "min" : [
                -0.9635382294654846,
                -0.008150726556777954,
                -1.1101633310317993
            ],
            "type" : "VEC3"
        },
        {
            "bufferView" : 1,
            "componentType" : 5123,
            "count" : 3912,
            "type" : "SCALAR"
        }
    ],
    "bufferViews" : [
        {
            "buffer" : 0,
            "byteLength" : 32880,
            "byteOffset" : 0
        },
        {
            "buffer" : 0,
            "byteLength" : 7824,
            "byteOffset" : 32880
        }
    ],
    "buffers" : [
        {
            "byteLength" : 40704,
            "uri" : "data:application/octet-stream;base64,"
        }
    ]
}
